<svg width="128" height="128" viewBox="0 0 128 128" fill="none" xmlns="http://www.w3.org/2000/svg">
<rect width="128" height="128" fill="#333333"/>
<path d="M41.2754 25.528C41.1076 25.6384 40.9337 25.7386 40.7674 25.8513C40.2158 26.2257 39.6871 26.6285 39.1531 27.0267C38.7668 27.3128 38.3736 27.5874 37.9966 27.8859C37.6658 28.1492 37.3525 28.4329 37.0294 28.7046C36.4823 29.164 35.9322 29.6197 35.4057 30.105C35.2396 30.2586 35.0856 30.4241 34.9217 30.5805C34.2685 31.2005 33.6244 31.8295 33.0072 32.4893C32.9511 32.5497 32.8996 32.6148 32.8433 32.6756C29.176 36.6414 26.1565 41.2901 24.0166 46.5041L24.0374 46.5041C24.0312 46.5204 24.0227 46.5355 24.0166 46.5517L41.9187 46.5517C47.3243 38.8744 56.2442 33.8621 66.2984 33.8621C82.8139 33.8621 96.2408 47.3766 96.2408 64C96.2408 80.6234 82.8141 94.1379 66.2984 94.1379C56.2442 94.1379 47.3243 89.1256 41.9187 81.4483L28.9975 81.4483L24.0604 81.4302C24.0627 81.4364 24.0659 81.4423 24.0681 81.4483L24.0166 81.4483C30.8241 98.1987 47.1827 110 66.2984 110C91.5447 110 112 89.4109 112 64C112 38.589 91.5447 18 66.2984 18C57.0514 18 48.4632 20.7807 41.2754 25.528Z" fill="white"/>
<path d="M16 56.0691L16 71.9309L66.4292 71.9309L66.4292 56.0691L16 56.0691Z" fill="white"/>
</svg>
